<svg id="Layer_1" data-name="Layer 1" xmlns="http://www.w3.org/2000/svg" viewBox="0 0 1000 1000"><rect x="26" y="24" width="949" height="949" rx="113.37" style="fill:#ee679b"/><path d="M495.45,829.25a335.82,335.82,0,1,1,237.44-98.36A333.58,333.58,0,0,1,495.45,829.25Z" style="fill:#ee679b"/><path d="M853.63,486.44A358.23,358.23,0,0,0,341.48,169.87c-105,50-181.77,149.65-200.1,268.56a361.75,361.75,0,0,0-4,44.74q-.15,5.11-.15,10.28c0,124.07,63.08,233.43,158.92,297.71a356.32,356.32,0,0,0,199.35,60.55,361,361,0,0,0,89.37-11.23c154.63-39.72,268.89-180,268.89-347C853.71,491.1,853.69,488.76,853.63,486.44ZM617.4,782.18q-10.44,4.41-21.11,8a308.6,308.6,0,0,1-48.43,12.23,315.74,315.74,0,0,1-52.41,4.33,311.31,311.31,0,0,1-122-24.6q-10.29-4.35-20.18-9.39a309,309,0,0,1-38.6-23.32,315.52,315.52,0,0,1-108-134.07,311.3,311.3,0,0,1-24.6-121.95q0-4,.1-8a314.19,314.19,0,0,1,4.32-44.87,314.17,314.17,0,0,1,187-235.85c.36-.14.71-.3,1.07-.43a309,309,0,0,1,46.65-15.36,312.64,312.64,0,0,1,281.67,69.67q7.25,6.41,14.13,13.3a312,312,0,0,1,91.75,217.42c0,1.38,0,2.75,0,4.14A313.74,313.74,0,0,1,617.4,782.18Z" style="fill:#c1386d"/><path d="M596.29,790.22q-2.41,12.63-5.31,25.3-2.85,12.47-6.16,25a355.78,355.78,0,0,1-49.19,9q3.47-11.72,6.52-23.44t5.71-23.58c15.9-71.06,19.9-141.56,11.87-210.68q-1.8-15.46-4.4-30.86-3.86-22.95-9.5-45.68h0a650.28,650.28,0,0,0-37.4-108.33q-9.06-20.38-19.62-40.46Q481.75,353,474,339.67c-31.74-54.75-67.62-100.29-99.48-135.39q-8.37-9.24-16.34-17.5-8.72-9.06-16.74-16.91a355.24,355.24,0,0,1,45.71-18q8.35,8.59,17.22,18.23c5.49,6,11.11,12.27,16.8,18.85A844.85,844.85,0,0,1,512,315.64q8.18,14,15.67,28.22Q538.32,364,547.58,384.4h0A697.16,697.16,0,0,1,587.28,496q5.78,22.13,10,44.46t6.93,45.11C612.17,652.88,609.49,721.33,596.29,790.22Z" style="fill:#c1386d"/><path d="M733.27,225.5q-7.18,8.22-15,16.74-7.41,8.07-15.41,16.35A838,838,0,0,1,610.55,341a757,757,0,0,1-63,43.41h0q-19.35,11.93-39.15,22.48a669.43,669.43,0,0,1-154,59.42A660.16,660.16,0,0,1,195,485.55q-6.39,0-12.82-.12-11.21-.21-22.45-.78t-22.43-1.48a361.75,361.75,0,0,1,4-44.74q11.28.92,22.49,1.43,11.37.56,22.66.7A616.62,616.62,0,0,0,342.6,423a625.34,625.34,0,0,0,146.21-56.52q19.67-10.55,38.88-22.57,27.63-17.26,54.24-37.55A783.72,783.72,0,0,0,666.82,231q8.16-8.35,15.73-16.54,7.89-8.55,15.13-16.82A360.38,360.38,0,0,1,733.27,225.5Z" style="fill:#c1386d"/><path d="M733.27,225.5q-7.18,8.22-15,16.74-7.41,8.07-15.41,16.35A838,838,0,0,1,610.55,341a757,757,0,0,1-63,43.41h0q-19.35,11.93-39.15,22.48a669.43,669.43,0,0,1-154,59.42A660.16,660.16,0,0,1,195,485.55q-6.39,0-12.82-.12-11.21-.21-22.45-.78t-22.43-1.48a361.75,361.75,0,0,1,4-44.74q11.28.92,22.49,1.43,11.37.56,22.66.7A616.62,616.62,0,0,0,342.6,423a625.34,625.34,0,0,0,146.21-56.52q19.67-10.55,38.88-22.57,27.63-17.26,54.24-37.55A783.72,783.72,0,0,0,666.82,231q8.16-8.35,15.73-16.54,7.89-8.55,15.13-16.82A360.38,360.38,0,0,1,733.27,225.5Z" style="fill:#c1386d"/><path d="M853.63,486.44q-11.32.44-22.44,1.17-11.33.7-22.43,1.7-118.25,10.53-211.46,51.1-21.69,9.42-42,20.5A483.36,483.36,0,0,0,468,621.62a471.49,471.49,0,0,0-90.77,107.62q-12.94,21-23.93,43.55-4.92,10.11-9.45,20.48t-8.49,20.78a354.33,354.33,0,0,1-39.27-22.89q4.25-10.62,8.89-21t9.72-20.65q10.86-21.87,23.48-42.5a516.8,516.8,0,0,1,99.66-118.65,530,530,0,0,1,108-73.09h0Q566,504.89,587.28,496A636,636,0,0,1,656,471.79q69.19-20,149-27.13,11.15-1,22.47-1.73,11.14-.74,22.49-1.21A357.86,357.86,0,0,1,853.63,486.44Z" style="fill:#c1386d"/></svg>